<mxfile host="app.diagrams.net" modified="2024-09-28T21:13:03.912Z" agent="Mozilla/5.0 (Windows NT 10.0; Win64; x64) AppleWebKit/537.36 (KHTML, like Gecko) Chrome/129.0.0.0 Safari/537.36" etag="d39IYup-a1FWHqbKtW6V" version="24.4.8" type="device" pages="3">
  <diagram name="Página-1" id="SkIUO2j9-pSNi00N5tzS">
    <mxGraphModel dx="1050" dy="565" grid="1" gridSize="10" guides="1" tooltips="1" connect="1" arrows="1" fold="1" page="1" pageScale="1" pageWidth="827" pageHeight="1169" math="0" shadow="0">
      <root>
        <mxCell id="0" />
        <mxCell id="1" parent="0" />
        <mxCell id="kkvQNQMtH8lpmX25HwuO-1" value="Usuario" style="shape=umlActor;verticalLabelPosition=bottom;verticalAlign=top;html=1;outlineConnect=0;" vertex="1" parent="1">
          <mxGeometry x="200" y="230" width="30" height="60" as="geometry" />
        </mxCell>
        <mxCell id="kkvQNQMtH8lpmX25HwuO-2" value="Sistema" style="shape=umlActor;verticalLabelPosition=bottom;verticalAlign=top;html=1;outlineConnect=0;" vertex="1" parent="1">
          <mxGeometry x="330" y="230" width="30" height="60" as="geometry" />
        </mxCell>
        <mxCell id="kkvQNQMtH8lpmX25HwuO-9" value="" style="rounded=1;whiteSpace=wrap;html=1;" vertex="1" parent="1">
          <mxGeometry x="210" y="330" width="10" height="330" as="geometry" />
        </mxCell>
        <mxCell id="kkvQNQMtH8lpmX25HwuO-10" value="" style="rounded=1;whiteSpace=wrap;html=1;" vertex="1" parent="1">
          <mxGeometry x="340" y="330" width="10" height="330" as="geometry" />
        </mxCell>
        <mxCell id="kkvQNQMtH8lpmX25HwuO-12" value="" style="endArrow=classic;html=1;rounded=0;" edge="1" parent="1">
          <mxGeometry width="50" height="50" relative="1" as="geometry">
            <mxPoint x="220" y="350" as="sourcePoint" />
            <mxPoint x="330" y="350" as="targetPoint" />
          </mxGeometry>
        </mxCell>
        <mxCell id="kkvQNQMtH8lpmX25HwuO-13" value="Usuário clica em &quot;Recuperar senha&quot;" style="edgeLabel;html=1;align=center;verticalAlign=middle;resizable=0;points=[];fontSize=6;" vertex="1" connectable="0" parent="kkvQNQMtH8lpmX25HwuO-12">
          <mxGeometry x="0.2557" relative="1" as="geometry">
            <mxPoint x="-13" y="-9" as="offset" />
          </mxGeometry>
        </mxCell>
        <mxCell id="kkvQNQMtH8lpmX25HwuO-14" value="" style="endArrow=classic;html=1;rounded=0;" edge="1" parent="1">
          <mxGeometry width="50" height="50" relative="1" as="geometry">
            <mxPoint x="330" y="370" as="sourcePoint" />
            <mxPoint x="230" y="370" as="targetPoint" />
          </mxGeometry>
        </mxCell>
        <mxCell id="kkvQNQMtH8lpmX25HwuO-15" value="&lt;font style=&quot;font-size: 5px;&quot;&gt;[request] Sistema solicita e-mail cadastrado.&lt;/font&gt;" style="text;html=1;align=center;verticalAlign=middle;resizable=0;points=[];autosize=1;strokeColor=none;fillColor=none;" vertex="1" parent="1">
          <mxGeometry x="220" y="360" width="120" height="30" as="geometry" />
        </mxCell>
        <mxCell id="kkvQNQMtH8lpmX25HwuO-16" value="" style="endArrow=classic;html=1;rounded=0;" edge="1" parent="1">
          <mxGeometry width="50" height="50" relative="1" as="geometry">
            <mxPoint x="230" y="400" as="sourcePoint" />
            <mxPoint x="330" y="400" as="targetPoint" />
          </mxGeometry>
        </mxCell>
        <mxCell id="kkvQNQMtH8lpmX25HwuO-17" value="&lt;font style=&quot;font-size: 5px;&quot;&gt;[response] Envia endereço de email&lt;/font&gt;" style="text;html=1;align=center;verticalAlign=middle;resizable=0;points=[];autosize=1;strokeColor=none;fillColor=none;" vertex="1" parent="1">
          <mxGeometry x="230" y="390" width="100" height="30" as="geometry" />
        </mxCell>
        <mxCell id="kkvQNQMtH8lpmX25HwuO-19" value="&lt;font style=&quot;font-size: 5px;&quot;&gt;[request] Trocar a senha&lt;/font&gt;" style="text;html=1;align=center;verticalAlign=middle;resizable=0;points=[];autosize=1;strokeColor=none;fillColor=none;" vertex="1" parent="1">
          <mxGeometry x="240" y="540" width="80" height="30" as="geometry" />
        </mxCell>
        <mxCell id="kkvQNQMtH8lpmX25HwuO-21" value="" style="endArrow=classic;html=1;rounded=0;" edge="1" parent="1">
          <mxGeometry width="50" height="50" relative="1" as="geometry">
            <mxPoint x="230" y="584.17" as="sourcePoint" />
            <mxPoint x="330" y="584.17" as="targetPoint" />
          </mxGeometry>
        </mxCell>
        <mxCell id="kkvQNQMtH8lpmX25HwuO-22" value="&lt;font style=&quot;font-size: 6px;&quot;&gt;[&lt;/font&gt;&lt;span style=&quot;font-size: 6px; background-color: initial;&quot;&gt;response] Senha nova&lt;/span&gt;" style="text;html=1;align=center;verticalAlign=middle;resizable=0;points=[];autosize=1;strokeColor=none;fillColor=none;" vertex="1" parent="1">
          <mxGeometry x="235" y="580" width="90" height="30" as="geometry" />
        </mxCell>
        <mxCell id="kkvQNQMtH8lpmX25HwuO-25" value="&lt;div style=&quot;font-size: 5px;&quot;&gt;&lt;font style=&quot;font-size: 5px;&quot;&gt;[except]&lt;/font&gt;&lt;/div&gt;&lt;div style=&quot;font-size: 5px;&quot;&gt;&lt;span style=&quot;text-align: left; text-wrap: nowrap; background-color: rgb(255, 255, 255);&quot;&gt;&lt;font style=&quot;font-size: 5px;&quot;&gt;Verificação do email&lt;/font&gt;&lt;/span&gt;&lt;span style=&quot;font-size: 7px;&quot;&gt;&lt;br&gt;&lt;/span&gt;&lt;/div&gt;" style="shape=umlFrame;whiteSpace=wrap;html=1;pointerEvents=0;width=80;height=30;" vertex="1" parent="1">
          <mxGeometry x="100" y="460" width="300" height="90" as="geometry" />
        </mxCell>
        <mxCell id="kkvQNQMtH8lpmX25HwuO-35" value="&lt;font style=&quot;font-size: 5px;&quot;&gt;&amp;nbsp;[try] Verificação do email&lt;/font&gt;" style="html=1;align=left;spacingLeft=2;endArrow=block;rounded=0;edgeStyle=orthogonalEdgeStyle;curved=0;rounded=0;" edge="1" parent="1">
          <mxGeometry x="-0.2941" y="-87" relative="1" as="geometry">
            <mxPoint x="325" y="420" as="sourcePoint" />
            <Array as="points">
              <mxPoint x="317" y="420" />
              <mxPoint x="317" y="450" />
            </Array>
            <mxPoint x="330" y="450" as="targetPoint" />
            <mxPoint as="offset" />
          </mxGeometry>
        </mxCell>
        <mxCell id="kkvQNQMtH8lpmX25HwuO-37" value="" style="endArrow=classic;html=1;rounded=0;" edge="1" parent="1">
          <mxGeometry width="50" height="50" relative="1" as="geometry">
            <mxPoint x="330" y="470" as="sourcePoint" />
            <mxPoint x="230" y="470" as="targetPoint" />
            <Array as="points">
              <mxPoint x="280" y="470" />
            </Array>
          </mxGeometry>
        </mxCell>
        <mxCell id="kkvQNQMtH8lpmX25HwuO-38" value="" style="endArrow=classic;html=1;rounded=0;" edge="1" parent="1">
          <mxGeometry width="50" height="50" relative="1" as="geometry">
            <mxPoint x="315" y="570" as="sourcePoint" />
            <mxPoint x="235" y="570" as="targetPoint" />
          </mxGeometry>
        </mxCell>
        <mxCell id="kkvQNQMtH8lpmX25HwuO-39" value="&lt;font style=&quot;font-size: 4px;&quot;&gt;[return] &quot;Email inválido&quot;&lt;/font&gt;" style="text;html=1;align=center;verticalAlign=middle;whiteSpace=wrap;rounded=0;" vertex="1" parent="1">
          <mxGeometry x="250" y="470" width="60" height="30" as="geometry" />
        </mxCell>
        <mxCell id="kkvQNQMtH8lpmX25HwuO-42" value="&lt;font style=&quot;font-size: 6px;&quot;&gt;[update] Atualização de senha&lt;/font&gt;" style="html=1;align=left;spacingLeft=2;endArrow=block;rounded=0;edgeStyle=orthogonalEdgeStyle;curved=0;rounded=0;" edge="1" parent="1">
          <mxGeometry x="-0.2941" y="-90" relative="1" as="geometry">
            <mxPoint x="318" y="610" as="sourcePoint" />
            <Array as="points">
              <mxPoint x="310" y="610" />
              <mxPoint x="310" y="640" />
            </Array>
            <mxPoint x="323" y="640" as="targetPoint" />
            <mxPoint as="offset" />
          </mxGeometry>
        </mxCell>
        <mxCell id="YUjp9eHZ_AWnmW_B9_Nk-7" value="&lt;span style=&quot;font-size: 5px;&quot;&gt;[break&lt;/span&gt;&lt;span style=&quot;font-size: 5px;&quot;&gt;] Start&lt;/span&gt;" style="html=1;align=left;spacingLeft=2;endArrow=block;rounded=0;edgeStyle=orthogonalEdgeStyle;curved=0;rounded=0;entryX=-0.152;entryY=0.055;entryDx=0;entryDy=0;entryPerimeter=0;" edge="1" parent="1" target="kkvQNQMtH8lpmX25HwuO-9">
          <mxGeometry x="-0.5278" y="10" relative="1" as="geometry">
            <mxPoint x="328" y="510" as="sourcePoint" />
            <Array as="points">
              <mxPoint x="190" y="510" />
              <mxPoint x="190" y="348" />
            </Array>
            <mxPoint x="200" y="350" as="targetPoint" />
            <mxPoint as="offset" />
          </mxGeometry>
        </mxCell>
        <mxCell id="YUjp9eHZ_AWnmW_B9_Nk-8" value="" style="shape=umlDestroy;whiteSpace=wrap;html=1;strokeWidth=3;targetShapes=umlLifeline;" vertex="1" parent="1">
          <mxGeometry x="200" y="690" width="30" height="30" as="geometry" />
        </mxCell>
        <mxCell id="YUjp9eHZ_AWnmW_B9_Nk-9" value="" style="shape=umlDestroy;whiteSpace=wrap;html=1;strokeWidth=3;targetShapes=umlLifeline;" vertex="1" parent="1">
          <mxGeometry x="330" y="690" width="30" height="30" as="geometry" />
        </mxCell>
        <mxCell id="YUjp9eHZ_AWnmW_B9_Nk-10" value="" style="endArrow=none;dashed=1;html=1;rounded=0;" edge="1" parent="1">
          <mxGeometry width="50" height="50" relative="1" as="geometry">
            <mxPoint x="214.8" y="680" as="sourcePoint" />
            <mxPoint x="214.8" y="670" as="targetPoint" />
          </mxGeometry>
        </mxCell>
        <mxCell id="YUjp9eHZ_AWnmW_B9_Nk-11" value="" style="endArrow=none;dashed=1;html=1;rounded=0;" edge="1" parent="1">
          <mxGeometry width="50" height="50" relative="1" as="geometry">
            <mxPoint x="344.8" y="680" as="sourcePoint" />
            <mxPoint x="344.8" y="670" as="targetPoint" />
          </mxGeometry>
        </mxCell>
        <mxCell id="YUjp9eHZ_AWnmW_B9_Nk-13" value="" style="endArrow=none;dashed=1;html=1;rounded=0;" edge="1" parent="1">
          <mxGeometry width="50" height="50" relative="1" as="geometry">
            <mxPoint x="214.8" y="330" as="sourcePoint" />
            <mxPoint x="214.8" y="320" as="targetPoint" />
          </mxGeometry>
        </mxCell>
        <mxCell id="YUjp9eHZ_AWnmW_B9_Nk-14" value="" style="endArrow=none;dashed=1;html=1;rounded=0;" edge="1" parent="1">
          <mxGeometry width="50" height="50" relative="1" as="geometry">
            <mxPoint x="344.8" y="330" as="sourcePoint" />
            <mxPoint x="344.8" y="320" as="targetPoint" />
          </mxGeometry>
        </mxCell>
      </root>
    </mxGraphModel>
  </diagram>
  <diagram id="12C4Pat49koXlZKovbDX" name="Página-2">
    <mxGraphModel dx="600" dy="323" grid="1" gridSize="10" guides="1" tooltips="1" connect="1" arrows="1" fold="1" page="1" pageScale="1" pageWidth="827" pageHeight="1169" math="0" shadow="0">
      <root>
        <mxCell id="0" />
        <mxCell id="1" parent="0" />
        <mxCell id="FDexeV9aEy56aXFTPAH5-1" value="Usuario" style="shape=umlActor;verticalLabelPosition=bottom;verticalAlign=top;html=1;outlineConnect=0;" vertex="1" parent="1">
          <mxGeometry x="200" y="230" width="30" height="60" as="geometry" />
        </mxCell>
        <mxCell id="FDexeV9aEy56aXFTPAH5-2" value="Suporte" style="shape=umlActor;verticalLabelPosition=bottom;verticalAlign=top;html=1;outlineConnect=0;" vertex="1" parent="1">
          <mxGeometry x="330" y="230" width="30" height="60" as="geometry" />
        </mxCell>
        <mxCell id="FDexeV9aEy56aXFTPAH5-3" value="" style="rounded=1;whiteSpace=wrap;html=1;" vertex="1" parent="1">
          <mxGeometry x="210" y="330" width="10" height="330" as="geometry" />
        </mxCell>
        <mxCell id="FDexeV9aEy56aXFTPAH5-4" value="" style="rounded=1;whiteSpace=wrap;html=1;" vertex="1" parent="1">
          <mxGeometry x="340" y="330" width="10" height="330" as="geometry" />
        </mxCell>
        <mxCell id="FDexeV9aEy56aXFTPAH5-5" value="" style="endArrow=classic;html=1;rounded=0;" edge="1" parent="1">
          <mxGeometry width="50" height="50" relative="1" as="geometry">
            <mxPoint x="220" y="350" as="sourcePoint" />
            <mxPoint x="330" y="350" as="targetPoint" />
          </mxGeometry>
        </mxCell>
        <mxCell id="FDexeV9aEy56aXFTPAH5-6" value="&lt;font style=&quot;font-size: 5px;&quot;&gt;[action] Entrar em contato&lt;/font&gt;" style="edgeLabel;html=1;align=center;verticalAlign=middle;resizable=0;points=[];fontSize=6;" vertex="1" connectable="0" parent="FDexeV9aEy56aXFTPAH5-5">
          <mxGeometry x="0.2557" relative="1" as="geometry">
            <mxPoint x="-9" y="-9" as="offset" />
          </mxGeometry>
        </mxCell>
        <mxCell id="FDexeV9aEy56aXFTPAH5-7" value="" style="endArrow=classic;html=1;rounded=0;" edge="1" parent="1">
          <mxGeometry width="50" height="50" relative="1" as="geometry">
            <mxPoint x="330" y="370" as="sourcePoint" />
            <mxPoint x="230" y="370" as="targetPoint" />
          </mxGeometry>
        </mxCell>
        <mxCell id="FDexeV9aEy56aXFTPAH5-8" value="&lt;font style=&quot;font-size: 5px;&quot;&gt;[request] CPF, Nome, data de nascimento&lt;/font&gt;" style="text;html=1;align=center;verticalAlign=middle;resizable=0;points=[];autosize=1;strokeColor=none;fillColor=none;" vertex="1" parent="1">
          <mxGeometry x="220" y="360" width="120" height="30" as="geometry" />
        </mxCell>
        <mxCell id="FDexeV9aEy56aXFTPAH5-9" value="" style="endArrow=classic;html=1;rounded=0;" edge="1" parent="1">
          <mxGeometry width="50" height="50" relative="1" as="geometry">
            <mxPoint x="230" y="400" as="sourcePoint" />
            <mxPoint x="330" y="400" as="targetPoint" />
          </mxGeometry>
        </mxCell>
        <mxCell id="FDexeV9aEy56aXFTPAH5-10" value="&lt;font style=&quot;font-size: 5px;&quot;&gt;[response]&amp;nbsp;&lt;/font&gt;&lt;span style=&quot;font-size: 5px;&quot;&gt;CPF, Nome, data de nascimento&lt;/span&gt;" style="text;html=1;align=center;verticalAlign=middle;resizable=0;points=[];autosize=1;strokeColor=none;fillColor=none;" vertex="1" parent="1">
          <mxGeometry x="220" y="390" width="120" height="30" as="geometry" />
        </mxCell>
        <mxCell id="FDexeV9aEy56aXFTPAH5-11" value="&lt;font style=&quot;font-size: 5px;&quot;&gt;[request] Trocar a senha&lt;/font&gt;" style="text;html=1;align=center;verticalAlign=middle;resizable=0;points=[];autosize=1;strokeColor=none;fillColor=none;" vertex="1" parent="1">
          <mxGeometry x="240" y="540" width="80" height="30" as="geometry" />
        </mxCell>
        <mxCell id="FDexeV9aEy56aXFTPAH5-12" value="" style="endArrow=classic;html=1;rounded=0;" edge="1" parent="1">
          <mxGeometry width="50" height="50" relative="1" as="geometry">
            <mxPoint x="230" y="584.17" as="sourcePoint" />
            <mxPoint x="330" y="584.17" as="targetPoint" />
          </mxGeometry>
        </mxCell>
        <mxCell id="FDexeV9aEy56aXFTPAH5-13" value="&lt;font style=&quot;font-size: 6px;&quot;&gt;[&lt;/font&gt;&lt;span style=&quot;font-size: 6px; background-color: initial;&quot;&gt;response] Senha nova&lt;/span&gt;" style="text;html=1;align=center;verticalAlign=middle;resizable=0;points=[];autosize=1;strokeColor=none;fillColor=none;" vertex="1" parent="1">
          <mxGeometry x="235" y="580" width="90" height="30" as="geometry" />
        </mxCell>
        <mxCell id="FDexeV9aEy56aXFTPAH5-14" value="&lt;div style=&quot;font-size: 5px;&quot;&gt;&lt;font style=&quot;font-size: 5px;&quot;&gt;[except]&lt;/font&gt;&lt;/div&gt;&lt;div style=&quot;font-size: 5px;&quot;&gt;&lt;span style=&quot;text-align: left; text-wrap: nowrap; background-color: rgb(255, 255, 255);&quot;&gt;&lt;font style=&quot;font-size: 5px;&quot;&gt;Verificação do email&lt;/font&gt;&lt;/span&gt;&lt;span style=&quot;font-size: 7px;&quot;&gt;&lt;br&gt;&lt;/span&gt;&lt;/div&gt;" style="shape=umlFrame;whiteSpace=wrap;html=1;pointerEvents=0;width=80;height=30;" vertex="1" parent="1">
          <mxGeometry x="100" y="460" width="300" height="90" as="geometry" />
        </mxCell>
        <mxCell id="FDexeV9aEy56aXFTPAH5-15" value="&lt;font style=&quot;font-size: 5px;&quot;&gt;&amp;nbsp;[try] Verificação do&amp;nbsp;&amp;nbsp;&lt;/font&gt;&lt;span style=&quot;font-size: 5px; text-align: center; background-color: rgb(251, 251, 251);&quot;&gt;CPF, Nome&lt;/span&gt;&lt;span style=&quot;background-color: rgb(251, 251, 251); font-size: 5px; text-align: center;&quot;&gt;,&lt;/span&gt;&lt;div&gt;&lt;span style=&quot;background-color: rgb(251, 251, 251); font-size: 5px; text-align: center;&quot;&gt;&amp;nbsp;data de nascimento&lt;/span&gt;&lt;/div&gt;" style="html=1;align=left;spacingLeft=2;endArrow=block;rounded=0;edgeStyle=orthogonalEdgeStyle;curved=0;rounded=0;" edge="1" parent="1">
          <mxGeometry x="-0.2941" y="-87" relative="1" as="geometry">
            <mxPoint x="325" y="420" as="sourcePoint" />
            <Array as="points">
              <mxPoint x="317" y="420" />
              <mxPoint x="317" y="450" />
            </Array>
            <mxPoint x="330" y="450" as="targetPoint" />
            <mxPoint as="offset" />
          </mxGeometry>
        </mxCell>
        <mxCell id="FDexeV9aEy56aXFTPAH5-16" value="" style="endArrow=classic;html=1;rounded=0;" edge="1" parent="1">
          <mxGeometry width="50" height="50" relative="1" as="geometry">
            <mxPoint x="330" y="470" as="sourcePoint" />
            <mxPoint x="230" y="470" as="targetPoint" />
            <Array as="points">
              <mxPoint x="280" y="470" />
            </Array>
          </mxGeometry>
        </mxCell>
        <mxCell id="FDexeV9aEy56aXFTPAH5-17" value="" style="endArrow=classic;html=1;rounded=0;" edge="1" parent="1">
          <mxGeometry width="50" height="50" relative="1" as="geometry">
            <mxPoint x="315" y="570" as="sourcePoint" />
            <mxPoint x="235" y="570" as="targetPoint" />
          </mxGeometry>
        </mxCell>
        <mxCell id="FDexeV9aEy56aXFTPAH5-18" value="&lt;font style=&quot;font-size: 4px;&quot;&gt;[return] &quot;Email inválido&quot;&lt;/font&gt;" style="text;html=1;align=center;verticalAlign=middle;whiteSpace=wrap;rounded=0;" vertex="1" parent="1">
          <mxGeometry x="250" y="470" width="60" height="30" as="geometry" />
        </mxCell>
        <mxCell id="FDexeV9aEy56aXFTPAH5-19" value="&lt;font style=&quot;font-size: 6px;&quot;&gt;[update] Atualização de senha&lt;/font&gt;" style="html=1;align=left;spacingLeft=2;endArrow=block;rounded=0;edgeStyle=orthogonalEdgeStyle;curved=0;rounded=0;" edge="1" parent="1">
          <mxGeometry x="-0.2941" y="-90" relative="1" as="geometry">
            <mxPoint x="318" y="610" as="sourcePoint" />
            <Array as="points">
              <mxPoint x="310" y="610" />
              <mxPoint x="310" y="640" />
            </Array>
            <mxPoint x="323" y="640" as="targetPoint" />
            <mxPoint as="offset" />
          </mxGeometry>
        </mxCell>
        <mxCell id="FDexeV9aEy56aXFTPAH5-20" value="&lt;span style=&quot;font-size: 5px;&quot;&gt;[break&lt;/span&gt;&lt;span style=&quot;font-size: 5px;&quot;&gt;] Start&lt;/span&gt;" style="html=1;align=left;spacingLeft=2;endArrow=block;rounded=0;edgeStyle=orthogonalEdgeStyle;curved=0;rounded=0;entryX=-0.152;entryY=0.055;entryDx=0;entryDy=0;entryPerimeter=0;" edge="1" parent="1" target="FDexeV9aEy56aXFTPAH5-3">
          <mxGeometry x="-0.5278" y="10" relative="1" as="geometry">
            <mxPoint x="328" y="510" as="sourcePoint" />
            <Array as="points">
              <mxPoint x="190" y="510" />
              <mxPoint x="190" y="348" />
            </Array>
            <mxPoint x="200" y="350" as="targetPoint" />
            <mxPoint as="offset" />
          </mxGeometry>
        </mxCell>
        <mxCell id="FDexeV9aEy56aXFTPAH5-21" value="" style="shape=umlDestroy;whiteSpace=wrap;html=1;strokeWidth=3;targetShapes=umlLifeline;" vertex="1" parent="1">
          <mxGeometry x="200" y="690" width="30" height="30" as="geometry" />
        </mxCell>
        <mxCell id="FDexeV9aEy56aXFTPAH5-22" value="" style="shape=umlDestroy;whiteSpace=wrap;html=1;strokeWidth=3;targetShapes=umlLifeline;" vertex="1" parent="1">
          <mxGeometry x="330" y="690" width="30" height="30" as="geometry" />
        </mxCell>
        <mxCell id="FDexeV9aEy56aXFTPAH5-23" value="" style="endArrow=none;dashed=1;html=1;rounded=0;" edge="1" parent="1">
          <mxGeometry width="50" height="50" relative="1" as="geometry">
            <mxPoint x="214.8" y="680" as="sourcePoint" />
            <mxPoint x="214.8" y="670" as="targetPoint" />
          </mxGeometry>
        </mxCell>
        <mxCell id="FDexeV9aEy56aXFTPAH5-24" value="" style="endArrow=none;dashed=1;html=1;rounded=0;" edge="1" parent="1">
          <mxGeometry width="50" height="50" relative="1" as="geometry">
            <mxPoint x="344.8" y="680" as="sourcePoint" />
            <mxPoint x="344.8" y="670" as="targetPoint" />
          </mxGeometry>
        </mxCell>
        <mxCell id="FDexeV9aEy56aXFTPAH5-25" value="" style="endArrow=none;dashed=1;html=1;rounded=0;" edge="1" parent="1">
          <mxGeometry width="50" height="50" relative="1" as="geometry">
            <mxPoint x="214.8" y="330" as="sourcePoint" />
            <mxPoint x="214.8" y="320" as="targetPoint" />
          </mxGeometry>
        </mxCell>
        <mxCell id="FDexeV9aEy56aXFTPAH5-26" value="" style="endArrow=none;dashed=1;html=1;rounded=0;" edge="1" parent="1">
          <mxGeometry width="50" height="50" relative="1" as="geometry">
            <mxPoint x="344.8" y="330" as="sourcePoint" />
            <mxPoint x="344.8" y="320" as="targetPoint" />
          </mxGeometry>
        </mxCell>
      </root>
    </mxGraphModel>
  </diagram>
  <diagram id="Mx8BBuqCHcZ5gvASkBTY" name="Página-3">
    <mxGraphModel dx="1050" dy="565" grid="1" gridSize="10" guides="1" tooltips="1" connect="1" arrows="1" fold="1" page="1" pageScale="1" pageWidth="827" pageHeight="1169" math="0" shadow="0">
      <root>
        <mxCell id="0" />
        <mxCell id="1" parent="0" />
      </root>
    </mxGraphModel>
  </diagram>
</mxfile>
